# xmcd
#
# Track frame offsets: 
#        150
#        10694
#        20582
#        30943
#        39904
#        49226
#        59823
#        70308
#        80775
#        92654
#        105915
#        117451
#        128603
#        139158
#        149266
#        157647
#        168890
#        178781
#        188930
#        199164
#        209302
#        221111
#        232798
#        243048
#        254468
#
# Disc length: 3532 seconds
#
# Revision: 0
# Processed by: cddbd v1.5.2PL0 Copyright (c) Steve Scherf et al.
# Submitted via: ExactAudioCopy v1.3
#
DISCID=550dca19
DTITLE=Johnny Horton - The Best Of CD 1
DYEAR=2018
DGENRE=Country
TTITLE0=Big Wheels Rollin' (1955)
TTITLE1=Honky-Tonk Man (1956)
TTITLE2=I'm Ready If You're Willing (1956)
TTITLE3=I'm A One-Woman Man (1956)
TTITLE4=I'm Coming Home (1957)
TTITLE5=I Got A Hole In My Pirogue (1957)
TTITLE6=She Knows Why (1957)
TTITLE7=Honky Tonk Hardwood Floor (1958)
TTITLE8=When It's Springtime In Alaska (It's Forty Below) (1959)
TTITLE9=Whispering Pine (1959)
TTITLE10=The Battle Of New Orleans (1959)
TTITLE11=All For The Love Of A Girl (1959)
TTITLE12=Johnny Reb (1959)
TTITLE13=Sal's Got A Sugar Lip (1959)
TTITLE14=All Grown Up (1959)
TTITLE15=Cherokee Boogie (1959)
TTITLE16=Got The Bull By The Horns (1959)
TTITLE17=I'm A Mean, Mean, Mean Son Of A Gun (1959)
TTITLE18=In My Home In Shelby County (1959)
TTITLE19=It's A Long Rocky Road (1959)
TTITLE20=Joe's Been A Gittin' There (1959)
TTITLE21=Lost Highway (1959)
TTITLE22=Move Down The Line (1959
TTITLE23=Mr Moonlight (1959)
TTITLE24=Plaid and Calico (1959)
EXTD=
EXTT0=
EXTT1=
EXTT2=
EXTT3=
EXTT4=
EXTT5=
EXTT6=
EXTT7=
EXTT8=
EXTT9=
EXTT10=
EXTT11=
EXTT12=
EXTT13=
EXTT14=
EXTT15=
EXTT16=
EXTT17=
EXTT18=
EXTT19=
EXTT20=
EXTT21=
EXTT22=
EXTT23=
EXTT24=
PLAYORDER=
